<?xml version="1.0" encoding="UTF-8" standalone="no"?>
<!-- Generator: Adobe Illustrator 15.1.0, SVG Export Plug-In . SVG Version: 6.00 Build 0)  -->

<svg
   xmlns:dc="http://purl.org/dc/elements/1.1/"
   xmlns:cc="http://creativecommons.org/ns#"
   xmlns:rdf="http://www.w3.org/1999/02/22-rdf-syntax-ns#"
   xmlns:svg="http://www.w3.org/2000/svg"
   xmlns="http://www.w3.org/2000/svg"
   xmlns:sodipodi="http://sodipodi.sourceforge.net/DTD/sodipodi-0.dtd"
   xmlns:inkscape="http://www.inkscape.org/namespaces/inkscape"
   version="1.1"
   id="Layer_1"
   x="0px"
   y="0px"
   width="60px"
   height="100px"
   viewBox="0 0 60 100"
   enable-background="new 0 0 60 100"
   xml:space="preserve"
   inkscape:version="0.48.1 "
   sodipodi:docname="microfono_microphone_icon_black_white_line_art_coloring_book_colouring.svg"><metadata
   id="metadata11"><rdf:RDF><cc:Work
       rdf:about=""><dc:format>image/svg+xml</dc:format><dc:type
         rdf:resource="http://purl.org/dc/dcmitype/StillImage" /></cc:Work></rdf:RDF></metadata><defs
   id="defs9" /><sodipodi:namedview
   pagecolor="#ffffff"
   bordercolor="#666666"
   borderopacity="1"
   objecttolerance="10"
   gridtolerance="10"
   guidetolerance="10"
   inkscape:pageopacity="0"
   inkscape:pageshadow="2"
   inkscape:window-width="761"
   inkscape:window-height="578"
   id="namedview7"
   showgrid="false"
   inkscape:zoom="2.91"
   inkscape:cx="-27.044674"
   inkscape:cy="50"
   inkscape:window-x="0"
   inkscape:window-y="0"
   inkscape:window-maximized="0"
   inkscape:current-layer="Layer_1" />

<g
   id="g2988"
   style="fill:#ffffff;stroke:#000000"
   transform="matrix(0.96059601,0,0,0.96059601,1.1821197,1.9701995)"><path
     id="path3"
     d="m 52,38 v 14 c 0,9.757 -8.242,18 -18,18 l 0,0 H 26 C 16.243,70 8,61.757 8,52 V 38 H 0 V 52 C 0,66.094 11.906,78 26,78 V 92 H 9 v 8 H 51 V 92 H 34 V 78 l 0,0 C 48.094,78 60,66.094 60,52 V 38 h -8 z"
     style="fill:#ffffff;stroke:#000000"
     inkscape:connector-curvature="0" /><path
     id="path5"
     d="m 26,64 h 8 c 5.714,0 10.788,-4.483 11.804,-10 H 33.917 V 50 H 46 V 46 H 33.917 V 42 H 46 V 38 H 33.917 V 34 H 46 V 30 H 33.917 V 26 H 46 V 22 H 33.917 V 18 H 46 V 14 H 33.917 V 10 H 45.804 C 44.788,4.483 39.714,0 34,0 H 26 C 19.607,0 14,5.607 14,12 v 40 c 0,6.393 5.607,12 12,12 z"
     style="fill:#ffffff;stroke:#000000"
     inkscape:connector-curvature="0" /></g>
</svg>